<svg xmlns="http://www.w3.org/2000/svg" xmlns:xlink="http://www.w3.org/1999/xlink" viewBox="0 0 702.908 225.453">
  <defs>
    <style>
      .a {
        fill: url(#a);
      }

      .b {
        fill: url(#b);
      }

      .c {
        fill: url(#c);
      }

      .d {
        fill: url(#d);
      }

      .e {
        fill: url(#e);
      }

      .f {
        fill: url(#f);
      }

      .g {
        fill: url(#g);
      }

      .h {
        fill: url(#h);
      }

      .i {
        fill: url(#i);
      }

      .j {
        fill: url(#j);
      }

      .k, .t {
        fill: #be3426;
      }

      .l {
        font-size: 30px;
        fill: #231f20;
        font-family: Futura-Medium, Futura;
        letter-spacing: 0.045em;
      }

      .m {
        letter-spacing: 0.1em;
      }

      .n {
        letter-spacing: 0.091em;
      }

      .o {
        letter-spacing: 0.076em;
      }

      .p {
        letter-spacing: 0.107em;
      }

      .q {
        letter-spacing: 0.065em;
      }

      .r {
        letter-spacing: 0.077em;
      }

      .s {
        letter-spacing: 0.108em;
      }

      .t {
        font-size: 144px;
        font-family: Optima-Regular, Optima;
        letter-spacing: -0.255em;
      }

      .u {
        letter-spacing: -0.125em;
      }

      .v {
        fill: #bfbfbf;
        letter-spacing: -0.05em;
      }

      .w, .x, .y {
        fill: #1f4b99;
      }

      .w {
        letter-spacing: -0.23em;
      }

      .x {
        letter-spacing: -0.15em;
      }

      .y {
        letter-spacing: -0.075em;
      }
    </style>
    <linearGradient id="a" x1="173.362" y1="271.651" x2="275.46" y2="271.651" gradientUnits="userSpaceOnUse">
      <stop offset="0" stop-color="#406bb4"/>
      <stop offset="1" stop-color="#4670b6"/>
    </linearGradient>
    <linearGradient id="b" x1="230.757" y1="303.973" x2="309.433" y2="303.973" gradientUnits="userSpaceOnUse">
      <stop offset="0" stop-color="#1b4696"/>
      <stop offset="1" stop-color="#3259a8"/>
    </linearGradient>
    <linearGradient id="c" x1="228.725" y1="353.255" x2="297.486" y2="353.255" xlink:href="#b"/>
    <linearGradient id="d" x1="148.33" y1="313.163" x2="206.425" y2="313.163" xlink:href="#a"/>
    <linearGradient id="e" x1="153.464" y1="371.587" x2="262.855" y2="371.587" xlink:href="#b"/>
    <linearGradient id="f" x1="146.61" y1="59.507" x2="171.61" y2="59.507" xlink:href="#b"/>
    <linearGradient id="g" x1="161.002" y1="159.495" x2="186.002" y2="159.495" xlink:href="#b"/>
    <linearGradient id="h" x1="70.05" y1="203.536" x2="95.05" y2="203.536" xlink:href="#b"/>
    <linearGradient id="i" x1="0" y1="130.994" x2="25" y2="130.994" xlink:href="#a"/>
    <linearGradient id="j" x1="47.039" y1="41.334" x2="72.039" y2="41.334" xlink:href="#a"/>
  </defs>
  <title>va-pals-full</title>
  <g>
    <path class="a" d="M191.632,261.583a16.488,16.488,0,0,1-2.561-.219,111.707,111.707,0,0,0-7.113,13.814c-4.274,9.743-7.712,20.3-8.6,26.3l41.781.322,14.107-44.584c8.685-1.826,30.515-.906,45.411,2.7a16.411,16.411,0,0,1,.8-2.974C256.041,243.132,230.937,237.959,208.1,244l-.017.005c.023.357.054.712.054,1.075A16.5,16.5,0,0,1,191.632,261.583Z" transform="translate(-131.804 -203.156)"/>
    <path class="b" d="M274.6,265.042c-13.142-3.294-34.5-4.624-43.847-3.067l12.6,39.82,46.761-.361c4.135,7.2,10.881,29.406,12.243,45.185a16.57,16.57,0,0,1,3.148-.316c7.252-22.8,4.452-48.409-8.4-68.353A16.468,16.468,0,0,1,274.6,265.042Z" transform="translate(-131.804 -203.156)"/>
    <path class="c" d="M297.486,348.433c-.978-13.57-6.8-35.3-11.419-44.1l-33.992,24.3,14.793,44.36c-5.926,6.555-24.048,19.755-38.143,26.062a16.52,16.52,0,0,1,1.329,3.131c23.887-.193,47.316-10.771,62.28-29.132.059-.072.111-.15.169-.222a16.46,16.46,0,0,1,4.983-24.394Z" transform="translate(-131.804 -203.156)"/>
    <path class="d" d="M160.6,334.178a16.4,16.4,0,0,1-1.649,7.153,110.642,110.642,0,0,0,11.386,10.932c8.071,6.835,17.263,13.25,22.87,15.994l13.215-39.629-38.043-27.194c.889-8.289,7.84-28.638,15.722-41.68a16.614,16.614,0,0,1-2.621-1.684c-19.149,14.2-31.84,36.488-33.151,60.093,0,.027,0,.055,0,.082A16.492,16.492,0,0,1,160.6,334.178Z" transform="translate(-131.804 -203.156)"/>
    <path class="e" d="M214.292,390.54a16.428,16.428,0,0,1,11.29,4.489c12.451-5.4,30.564-18.086,37.273-25L229.25,345.211l-37.618,27.777c-7.692-3.443-25.413-16.094-35.621-27.407a16.692,16.692,0,0,1-2.547,2.168c7.576,22.632,24.864,41.619,46.931,50.169.041.016.084.028.126.044A16.478,16.478,0,0,1,214.292,390.54Z" transform="translate(-131.804 -203.156)"/>
    <circle class="f" cx="159.11" cy="59.507" r="12.5"/>
    <circle class="g" cx="173.502" cy="159.495" r="12.5"/>
    <circle class="h" cx="82.55" cy="203.536" r="12.5"/>
    <circle class="i" cx="12.5" cy="130.994" r="12.5"/>
    <circle class="j" cx="59.539" cy="41.334" r="12.5"/>
    <polygon class="k" points="87.454 103.302 97.446 73.055 107.439 103.302 139.293 103.458 113.614 122.308 123.309 152.652 97.446 134.055 71.584 152.652 81.278 122.308 55.6 103.458 87.454 103.302"/>
    <text class="l" transform="translate(207.392 182.796)">P<tspan class="m" x="17.546" y="0">A</tspan><tspan class="n" x="42.768" y="0">R</tspan><tspan class="m" x="63.565" y="0">TNERSHIP </tspan><tspan class="o" x="239.188" y="0">T</tspan><tspan class="m" x="255.943" y="0">O I</tspan><tspan class="p" x="309.855" y="0">N</tspan><tspan class="m" x="338.388" y="0">CREASE</tspan><tspan class="q"><tspan x="-23.743" y="34">A</tspan><tspan class="m" x="0.424" y="34">CCESS </tspan><tspan class="o" x="121.666" y="34">T</tspan><tspan class="m" x="138.421" y="34">O </tspan><tspan class="r" x="180.485" y="34">L</tspan><tspan class="m" x="196.098" y="34">U</tspan><tspan class="s" x="221.261" y="34">N</tspan><tspan class="m" x="249.822" y="34">G SCREENI</tspan><tspan class="s" x="436.021" y="34">N</tspan><tspan class="m" x="464.583" y="34">G</tspan></tspan></text>
    <text class="t" transform="translate(197.451 137.32) scale(1.1 1)">V<tspan class="u" x="59.328" y="0">A</tspan><tspan class="v" x="137.374" y="-16">-</tspan><tspan class="w" x="178.125" y="0">P</tspan><tspan class="x" x="225.07" y="0">A</tspan><tspan class="y" x="299.516" y="0">LS</tspan></text>
  </g>
</svg>
