<svg xmlns="http://www.w3.org/2000/svg" viewBox="0 0 81 101">
  <defs>
    <style>
      .outline {
        fill: #407fbf;
        stroke: #ffffff;
        stroke-miterlimit: 10;
        stroke-width: 7%;
      }
      .ichar {
        fill: #ffffff;
      }
    </style>
  </defs>
  <title>info-banner</title>
  <rect class="outline" x="0.5" y="0.5" width="80" height="100" rx="20" ry="20"/>
  <path class="ichar" d="M184.18,206.035l-.082,25.676q0,3.322,5.373,3.979v2.092l-22.436.041v-2.051a7.247,7.247,0,0,0,4.061-.964,3.1,3.1,0,0,0,1.436-2.728V214.566q0-3.363-5.455-3.979l.041-2.625ZM178.4,190.2a5.726,5.726,0,0,1,4.245,1.723,5.83,5.83,0,0,1,1.7,4.266,5.731,5.731,0,0,1-1.7,4.184,5.581,5.581,0,0,1-4.122,1.723,6.14,6.14,0,0,1-4.348-1.6,5.3,5.3,0,0,1-1.723-4.061,6.245,6.245,0,0,1,1.661-4.491A5.656,5.656,0,0,1,178.4,190.2Z" transform="translate(-136.753 -164.512)"/>
</svg>
