<svg xmlns="http://www.w3.org/2000/svg" viewBox="0 0 363.23 184.437">
  <defs>
    <style>
      .a {
        fill: #051a35;
      }

      .b {
        fill: #488cca;
      }
    </style>
  </defs>
  <title>paraxial-technologies</title>
  <g>
    <path class="a" d="M138.905,97.669c8.04,0,14.76.96,20.161,5.64,5.88,5.04,7.32,12.121,7.32,17.161,0,11.28-7.08,22.44-25.321,22.44h-7.8v34.8h-8.88V97.669Zm-5.64,36.841h7.32c10.56,0,16.92-5.28,16.92-14.52,0-12.721-11.88-13.921-17.64-13.921h-6.6Z" transform="translate(-124.385 -90.228)"/>
    <path class="a" d="M212.708,127.91h8.64v49.8h-8.64v-6.96a21.007,21.007,0,0,1-17.04,8.4c-12.6,0-24.241-8.88-24.241-26.4,0-17.16,11.52-26.04,24.241-26.04a20.6,20.6,0,0,1,17.04,8.28Zm-32.4,24.84c0,10.681,6,18.721,16.321,18.721,10.56,0,16.56-8.76,16.56-18.6,0-12.841-8.88-18.481-16.56-18.481C188.107,134.39,180.307,140.63,180.307,152.75Z" transform="translate(-124.385 -90.228)"/>
    <path class="a" d="M237.667,127.91h8.64v5.4c.841-1.32,4.56-6.6,11.28-6.6a18.241,18.241,0,0,1,7.68,2.04l-4.079,7.8a8.892,8.892,0,0,0-5.041-1.68,8.364,8.364,0,0,0-6.96,3.12c-1.44,1.92-2.88,5.28-2.88,13.441v26.28h-8.64Z" transform="translate(-124.385 -90.228)"/>
    <path class="a" d="M308.827,127.91h8.641v49.8h-8.641v-6.96a21.009,21.009,0,0,1-17.04,8.4c-12.6,0-24.241-8.88-24.241-26.4,0-17.16,11.52-26.04,24.241-26.04a20.6,20.6,0,0,1,17.04,8.28Zm-32.4,24.84c0,10.681,6,18.721,16.32,18.721,10.56,0,16.561-8.76,16.561-18.6,0-12.841-8.881-18.481-16.561-18.481C284.227,134.39,276.427,140.63,276.427,152.75Z" transform="translate(-124.385 -90.228)"/>
    <g>
      <polygon class="a" points="235.538 59.156 252.363 37.681 241.803 37.681 230.458 52.357 235.538 59.156"/>
      <polygon class="a" points="235.541 62.784 230.303 69.55 244.204 87.483 254.764 87.483 235.541 62.784"/>
      <polygon class="b" points="215.883 37.681 205.323 37.681 223.443 60.842 202.202 87.483 212.762 87.483 233.284 60.973 215.883 37.681"/>
    </g>
    <g>
      <path class="a" d="M392.589,102.949a6.121,6.121,0,1,1-6.12,6.12A6.146,6.146,0,0,1,392.589,102.949Z" transform="translate(-124.385 -90.228)"/>
      <rect class="a" x="263.885" y="37.681" width="8.64" height="49.802"/>
    </g>
    <path class="a" d="M451.389,127.91h8.641v49.8h-8.641v-6.96a21.009,21.009,0,0,1-17.04,8.4c-12.6,0-24.241-8.88-24.241-26.4,0-17.16,11.521-26.04,24.241-26.04a20.6,20.6,0,0,1,17.04,8.28Zm-32.4,24.84c0,10.681,6,18.721,16.32,18.721,10.56,0,16.561-8.76,16.561-18.6,0-12.841-8.881-18.481-16.561-18.481C426.788,134.39,418.988,140.63,418.988,152.75Z" transform="translate(-124.385 -90.228)"/>
    <path class="a" d="M484.987,90.228v87.483h-8.639V90.228Z" transform="translate(-124.385 -90.228)"/>
  </g>
  <g>
    <path class="a" d="M141.468,214.805v43.212h-5.357V214.805H124.385v-5.067h28.809v5.067Z" transform="translate(-124.385 -90.228)"/>
    <path class="a" d="M181,250.345a17.968,17.968,0,0,1-3.692,4.849,14.58,14.58,0,0,1-9.989,3.692c-7.238,0-14.838-4.561-14.838-15.707,0-8.976,5.5-15.925,14.549-15.925a13.442,13.442,0,0,1,11.364,5.5c1.882,2.679,2.968,7.311,2.822,11.292H157.836c.073,6.225,4.343,10.206,9.555,10.206a9.135,9.135,0,0,0,6.152-2.171,11.994,11.994,0,0,0,3.113-4.126ZM175.86,239.7c-.869-4.7-4.416-7.817-8.831-7.817A9.129,9.129,0,0,0,158.2,239.7Z" transform="translate(-124.385 -90.228)"/>
    <path class="a" d="M212.7,236.374a12.116,12.116,0,0,0-9.41-4.487c-5.573,0-10.64,3.908-10.64,11.219s5.211,11.147,10.567,11.147a12.806,12.806,0,0,0,9.7-4.7v6.225a16.047,16.047,0,0,1-9.556,3.113c-9.336,0-16.068-6.66-16.068-15.707,0-9.193,6.8-15.925,16.068-15.925a15.913,15.913,0,0,1,9.339,2.9Z" transform="translate(-124.385 -90.228)"/>
    <path class="a" d="M220.88,205.25h5.211v26.2a10.6,10.6,0,0,1,8.615-4.2,10.19,10.19,0,0,1,8.614,4.127c1.519,2.243,1.737,4.7,1.737,8.034v18.6h-5.211V239.559a8.832,8.832,0,0,0-1.378-5.5,5.891,5.891,0,0,0-4.92-2.171,6.565,6.565,0,0,0-5.284,2.316c-2.028,2.389-2.173,5.935-2.173,8.107v15.707H220.88Z" transform="translate(-124.385 -90.228)"/>
    <path class="a" d="M254.9,227.978h5.211v3.475a10.6,10.6,0,0,1,8.614-4.2,10.191,10.191,0,0,1,8.615,4.127c1.519,2.243,1.737,4.7,1.737,8.034v18.6h-5.211V239.559a8.832,8.832,0,0,0-1.378-5.5,5.891,5.891,0,0,0-4.92-2.171,6.565,6.565,0,0,0-5.284,2.316c-2.028,2.389-2.173,5.935-2.173,8.107v15.707H254.9Z" transform="translate(-124.385 -90.228)"/>
    <path class="a" d="M287.037,243.106c0-9.12,6.73-15.852,15.924-15.852s15.924,6.732,15.924,15.852-6.8,15.78-15.924,15.78S287.037,252.226,287.037,243.106Zm5.355,0c0,7.383,5.211,11.147,10.569,11.147,5.429,0,10.567-3.836,10.567-11.147,0-7.383-5.067-11.219-10.567-11.219S292.392,235.8,292.392,243.106Z" transform="translate(-124.385 -90.228)"/>
    <path class="a" d="M333.371,205.25v52.767H328.16V205.25Z" transform="translate(-124.385 -90.228)"/>
    <path class="a" d="M341.332,243.106c0-9.12,6.731-15.852,15.925-15.852s15.924,6.732,15.924,15.852-6.8,15.78-15.924,15.78S341.332,252.226,341.332,243.106Zm5.356,0c0,7.383,5.211,11.147,10.569,11.147,5.429,0,10.566-3.836,10.566-11.147,0-7.383-5.066-11.219-10.566-11.219S346.688,235.8,346.688,243.106Z" transform="translate(-124.385 -90.228)"/>
    <path class="a" d="M404.159,227.978h5.214v29.315c0,3.257,0,7.89-2.9,11.8a14.61,14.61,0,0,1-12.015,5.573,14.88,14.88,0,0,1-10.713-4.053,13.537,13.537,0,0,1-3.907-9.7h5.137a9.452,9.452,0,0,0,2.317,6.225,9.3,9.3,0,0,0,7.237,2.895c3.692,0,6.226-1.3,7.964-4.2,1.519-2.461,1.663-5.139,1.663-7.672v-4.343a12.668,12.668,0,0,1-10.278,5.067,14.385,14.385,0,0,1-10.278-4.054c-2.025-2.027-4.342-5.791-4.342-11.871,0-5.862,2.17-9.482,4.342-11.653a14.812,14.812,0,0,1,10.278-4.054,12.49,12.49,0,0,1,10.278,5Zm-16.5,6.732a11.436,11.436,0,0,0-3.041,8.251,11.578,11.578,0,0,0,3.4,8.831,9.088,9.088,0,0,0,6.442,2.461,8.886,8.886,0,0,0,6.586-2.533,12.172,12.172,0,0,0,3.4-8.686,11.88,11.88,0,0,0-3.185-8.469,9.627,9.627,0,0,0-6.8-2.678A9.312,9.312,0,0,0,387.657,234.71Z" transform="translate(-124.385 -90.228)"/>
    <g>
      <path class="a" d="M421.821,212.923a3.692,3.692,0,1,1-3.692,3.691A3.708,3.708,0,0,1,421.821,212.923Z" transform="translate(-124.385 -90.228)"/>
      <rect class="a" x="294.83" y="137.75" width="5.211" height="30.039"/>
    </g>
    <path class="a" d="M460.906,250.345a17.968,17.968,0,0,1-3.692,4.849,14.578,14.578,0,0,1-9.989,3.692c-7.239,0-14.838-4.561-14.838-15.707,0-8.976,5.5-15.925,14.55-15.925a13.445,13.445,0,0,1,11.364,5.5c1.881,2.679,2.967,7.311,2.821,11.292H437.743c.073,6.225,4.342,10.206,9.556,10.206a9.132,9.132,0,0,0,6.15-2.171,12.013,12.013,0,0,0,3.115-4.126Zm-5.14-10.641c-.868-4.7-4.416-7.817-8.829-7.817a9.13,9.13,0,0,0-8.832,7.817Z" transform="translate(-124.385 -90.228)"/>
    <path class="a" d="M481.462,234.927a4.606,4.606,0,0,0-4.2-3.04,3.319,3.319,0,0,0-3.619,3.4c0,2.171,1.446,2.823,4.849,4.27,4.343,1.81,6.369,3.185,7.528,4.633a7.113,7.113,0,0,1,1.593,4.849c0,6.3-4.56,9.845-10.351,9.845a10.742,10.742,0,0,1-10.5-7.673l4.487-1.882c.58,1.592,2.317,4.922,6.08,4.922a4.661,4.661,0,0,0,4.922-4.777c0-2.823-2.026-3.764-4.849-4.994-3.618-1.593-5.935-2.751-7.31-4.416a6.512,6.512,0,0,1-1.375-4.415c0-5.284,3.692-8.4,8.758-8.4a8.664,8.664,0,0,1,8.25,5.429Z" transform="translate(-124.385 -90.228)"/>
  </g>
</svg>
